<svg xmlns="http://www.w3.org/2000/svg" width="234" height="276" fill="none"><path fill="#fff" d="M131.43.668v47.991h-13.039V35.851h-14.814v-23.07H80.353v23.07h12.5v24.69h15.739V72.81h9.799v12.422H97.327V72.81H68.471V60.541H55.123v-24.69h-14.66V72.81h14.66v12.422h29.396v11.96h27.237v12.576h14.042v12.499h6.018v36.958h-13.039v-24.458h-11.265v-12.808H94.164V110.54H55.123v24.227h35.106v12.113h12.345v31.943H81.742V159.61H68.317v-12.731H39.769v-36.34h-13.04v-25.54H2.194v25.54H12.61v24.227h14.12v24.844h13.039v12.533h28.637v12.472H26.729V159.61H1.962v12.577H12.61v24.767h19.752v12.036h22.53v-12.036H86.14v12.036h6.712v23.533h12.885v12.962h26.079v-12.962h13.58V208.99h26.31v-12.036h12.422v11.959h19.289V184.3h-19.289v-12.422h19.289v-12.654h15.354v12.654h14.277v-24.767h-23.921v-24.845h17.669v-12.113h6.252V97.576h-6.252v-24.69h-17.669v24.69h-12.808v36.727h-12.191v24.921h-13.194v11.651h-11.419v26.079h-24.227v12.036h-3.472v12.654h-12.653v-37.19h12.653v-12.422h14.043v-12.808h13.656v-36.958h14.197V84.614h15.74V60.31h6.79V36.083h-20.061v36.803h-16.666v36.881h-13.656V97.191H131.43V60.31h14.429V48.66h12.19V24.74h-12.19V.669H131.43ZM8.679 275.542a6.785 6.785 0 0 1-2.802-.587 7.475 7.475 0 0 1-2.308-1.637 7.875 7.875 0 0 1-1.553-2.434 7.87 7.87 0 0 1-.556-2.959c0-1.05.185-2.036.556-2.959a7.724 7.724 0 0 1 1.553-2.424 7.234 7.234 0 0 1 2.308-1.637 6.668 6.668 0 0 1 2.802-.598c1.19 0 2.284.276 3.284.829 1 .552 1.83 1.287 2.487 2.203l-1.941 1.039a5.063 5.063 0 0 0-1.69-1.375 4.653 4.653 0 0 0-2.14-.514c-.7 0-1.354.144-1.962.43a5.2 5.2 0 0 0-1.606 1.176 5.43 5.43 0 0 0-1.08 1.731 5.676 5.676 0 0 0-.389 2.099c0 .748.13 1.451.389 2.109.258.65.619 1.227 1.08 1.731a5.325 5.325 0 0 0 1.616 1.175c.609.28 1.26.42 1.952.42.77 0 1.486-.172 2.15-.514a5.079 5.079 0 0 0 1.68-1.385l1.941 1.059a7.459 7.459 0 0 1-2.487 2.204c-1 .546-2.095.818-3.284.818Zm18.349 0a6.785 6.785 0 0 1-2.802-.587 7.377 7.377 0 0 1-2.308-1.648 7.743 7.743 0 0 1-2.13-5.382c0-1.05.189-2.033.567-2.949a7.766 7.766 0 0 1 1.563-2.434 7.233 7.233 0 0 1 2.308-1.637 6.668 6.668 0 0 1 2.802-.598c1 0 1.938.199 2.812.598a7.233 7.233 0 0 1 2.308 1.637 7.616 7.616 0 0 1 1.553 2.434 7.66 7.66 0 0 1 .567 2.949 7.743 7.743 0 0 1-.566 2.959 7.644 7.644 0 0 1-1.553 2.423 7.377 7.377 0 0 1-2.309 1.648 6.81 6.81 0 0 1-2.812.587Zm0-2.182c.7 0 1.354-.144 1.962-.43a5.2 5.2 0 0 0 1.606-1.176 5.492 5.492 0 0 0 1.09-1.731 5.543 5.543 0 0 0 .4-2.098c0-.742-.133-1.442-.4-2.099a5.339 5.339 0 0 0-1.09-1.731 4.985 4.985 0 0 0-1.606-1.176 4.557 4.557 0 0 0-1.962-.43c-.7 0-1.354.144-1.962.43a5.246 5.246 0 0 0-1.616 1.186 5.606 5.606 0 0 0-1.091 1.731 5.6 5.6 0 0 0-.389 2.089c0 .748.13 1.451.389 2.109a5.79 5.79 0 0 0 1.09 1.731 5.326 5.326 0 0 0 1.617 1.175c.608.28 1.262.42 1.962.42Zm13.004 1.91v-14.691h5.404c.797 0 1.514.196 2.15.588a4.27 4.27 0 0 1 1.512 1.585c.377.657.566 1.392.566 2.203 0 .686-.13 1.312-.388 1.878a4.064 4.064 0 0 1-1.07 1.448 4.128 4.128 0 0 1-1.564.861l3.547 6.128H47.66l-3.441-5.929h-2.005v5.929h-2.182Zm2.182-8.111h2.99c.42 0 .802-.105 1.145-.315.35-.21.626-.49.829-.84.202-.349.304-.745.304-1.185 0-.441-.102-.836-.304-1.186a2.222 2.222 0 0 0-.83-.84 2.154 2.154 0 0 0-1.143-.314h-2.99v4.68Zm18.444-6.58h2.55l5.34 14.691H66.24l-1.018-2.792h-6.579l-1.007 2.792h-2.319l5.34-14.691Zm-1.207 9.717h4.963l-2.486-6.82-2.477 6.82Zm14.716 4.974v-14.691h2.183v12.508h6.327v2.183h-8.51Zm23.418 0v-14.691h5.057c.791 0 1.504.196 2.141.588a4.33 4.33 0 0 1 1.532 1.585c.384.664.577 1.399.577 2.203a4.3 4.3 0 0 1-.588 2.225 4.435 4.435 0 0 1-1.542 1.573 3.999 3.999 0 0 1-2.12.588h-2.875v5.929h-2.182Zm2.182-8.111h2.655c.419 0 .801-.105 1.143-.315.35-.21.627-.49.829-.84.21-.349.315-.745.315-1.185a2.26 2.26 0 0 0-.315-1.186 2.214 2.214 0 0 0-.829-.84 2.152 2.152 0 0 0-1.143-.314h-2.655v4.68Zm12.908 8.111v-14.691h5.403c.798 0 1.515.196 2.151.588a4.26 4.26 0 0 1 1.511 1.585c.378.657.567 1.392.567 2.203a4.46 4.46 0 0 1-.388 1.878 4.074 4.074 0 0 1-1.07 1.448 4.13 4.13 0 0 1-1.564.861l3.547 6.128h-2.529l-3.442-5.929h-2.004v5.929h-2.182Zm2.182-8.111h2.991c.419 0 .801-.105 1.143-.315a2.316 2.316 0 0 0 1.134-2.025 2.32 2.32 0 0 0-.305-1.186 2.222 2.222 0 0 0-.829-.84 2.152 2.152 0 0 0-1.143-.314h-2.991v4.68Zm20.261 8.383a6.79 6.79 0 0 1-2.802-.587 7.374 7.374 0 0 1-2.308-1.648 7.793 7.793 0 0 1-1.564-2.423 7.756 7.756 0 0 1-.566-2.959c0-1.05.189-2.033.566-2.949a7.764 7.764 0 0 1 1.564-2.434 7.23 7.23 0 0 1 2.308-1.637 6.673 6.673 0 0 1 2.802-.598c1 0 1.938.199 2.812.598a7.23 7.23 0 0 1 2.308 1.637 7.596 7.596 0 0 1 1.553 2.434c.378.916.567 1.899.567 2.949a7.737 7.737 0 0 1-.567 2.959 7.623 7.623 0 0 1-1.553 2.423 7.374 7.374 0 0 1-2.308 1.648 6.81 6.81 0 0 1-2.812.587Zm0-2.182c.699 0 1.353-.144 1.962-.43a5.186 5.186 0 0 0 1.605-1.176 5.49 5.49 0 0 0 1.092-1.731 5.539 5.539 0 0 0 .398-2.098 5.54 5.54 0 0 0-.398-2.099 5.337 5.337 0 0 0-1.092-1.731 4.971 4.971 0 0 0-1.605-1.176 4.559 4.559 0 0 0-1.962-.43c-.7 0-1.354.144-1.962.43a5.232 5.232 0 0 0-1.616 1.186 5.585 5.585 0 0 0-1.091 1.731 5.598 5.598 0 0 0-.389 2.089c0 .748.13 1.451.389 2.109.265.65.629 1.227 1.091 1.731a5.312 5.312 0 0 0 1.616 1.175c.608.28 1.262.42 1.962.42Zm23.378-12.781v2.183h-4.68v12.508h-2.182v-12.508h-4.67v-2.183h11.532Zm11.864 14.963a6.79 6.79 0 0 1-2.802-.587 7.385 7.385 0 0 1-2.308-1.648 7.737 7.737 0 0 1-2.13-5.382c0-1.05.189-2.033.567-2.949a7.743 7.743 0 0 1 1.563-2.434 7.242 7.242 0 0 1 2.308-1.637 6.673 6.673 0 0 1 2.802-.598c1 0 1.938.199 2.812.598a7.235 7.235 0 0 1 2.309 1.637 7.63 7.63 0 0 1 1.553 2.434c.377.916.566 1.899.566 2.949a7.756 7.756 0 0 1-.566 2.959 7.657 7.657 0 0 1-1.553 2.423 7.378 7.378 0 0 1-2.309 1.648 6.81 6.81 0 0 1-2.812.587Zm0-2.182c.7 0 1.354-.144 1.962-.43a5.202 5.202 0 0 0 1.606-1.176 5.505 5.505 0 0 0 1.091-1.731 5.54 5.54 0 0 0 .399-2.098 5.54 5.54 0 0 0-.399-2.099 5.351 5.351 0 0 0-1.091-1.731 4.986 4.986 0 0 0-1.606-1.176 4.552 4.552 0 0 0-1.962-.43c-.699 0-1.354.144-1.962.43a5.244 5.244 0 0 0-1.616 1.186 5.604 5.604 0 0 0-1.091 1.731 5.598 5.598 0 0 0-.389 2.089c0 .748.13 1.451.389 2.109.266.65.629 1.227 1.091 1.731a5.324 5.324 0 0 0 1.616 1.175c.608.28 1.263.42 1.962.42Zm19.762 2.182a6.782 6.782 0 0 1-2.801-.587 7.476 7.476 0 0 1-2.309-1.637 7.89 7.89 0 0 1-1.553-2.434 7.885 7.885 0 0 1-.556-2.959c0-1.05.186-2.036.556-2.959a7.739 7.739 0 0 1 1.553-2.424 7.235 7.235 0 0 1 2.309-1.637 6.665 6.665 0 0 1 2.801-.598 6.68 6.68 0 0 1 3.285.829 7.45 7.45 0 0 1 2.486 2.203l-1.941 1.039a5.07 5.07 0 0 0-1.689-1.375 4.655 4.655 0 0 0-2.141-.514c-.699 0-1.353.144-1.962.43a5.186 5.186 0 0 0-1.605 1.176 5.429 5.429 0 0 0-1.081 1.731 5.672 5.672 0 0 0-.388 2.099c0 .748.129 1.451.388 2.109a5.61 5.61 0 0 0 1.081 1.731 5.312 5.312 0 0 0 1.616 1.175 4.61 4.61 0 0 0 1.951.42 4.63 4.63 0 0 0 2.151-.514 5.078 5.078 0 0 0 1.679-1.385l1.941 1.059a7.453 7.453 0 0 1-2.486 2.204c-1.001.546-2.096.818-3.285.818Zm18.349 0a6.782 6.782 0 0 1-2.801-.587 7.378 7.378 0 0 1-2.309-1.648 7.737 7.737 0 0 1-2.13-5.382c0-1.05.189-2.033.567-2.949a7.779 7.779 0 0 1 1.563-2.434 7.235 7.235 0 0 1 2.309-1.637 6.665 6.665 0 0 1 2.801-.598c1.001 0 1.938.199 2.812.598a7.235 7.235 0 0 1 2.309 1.637 7.63 7.63 0 0 1 1.553 2.434c.378.916.566 1.899.566 2.949a7.737 7.737 0 0 1-.566 2.959 7.657 7.657 0 0 1-1.553 2.423 7.378 7.378 0 0 1-2.309 1.648 6.806 6.806 0 0 1-2.812.587Zm0-2.182c.7 0 1.354-.144 1.963-.43a5.21 5.21 0 0 0 1.605-1.176 5.487 5.487 0 0 0 1.091-1.731 5.54 5.54 0 0 0 .399-2.098 5.54 5.54 0 0 0-.399-2.099 5.335 5.335 0 0 0-1.091-1.731 4.993 4.993 0 0 0-1.605-1.176 4.56 4.56 0 0 0-1.963-.43c-.699 0-1.353.144-1.962.43a5.256 5.256 0 0 0-1.616 1.186 5.622 5.622 0 0 0-1.091 1.731 5.597 5.597 0 0 0-.388 2.089c0 .748.129 1.451.388 2.109.266.65.63 1.227 1.091 1.731a5.336 5.336 0 0 0 1.616 1.175 4.64 4.64 0 0 0 1.962.42Zm13.004 1.91v-14.691h2.183v12.508h6.327v2.183h-8.51Z"/></svg>